<svg xmlns="http://www.w3.org/2000/svg" xmlns:xlink="http://www.w3.org/1999/xlink" width="174" height="174" viewBox="0 0 174 174">
  <defs>
    <clipPath id="clip-path">
      <path id="Path_74" data-name="Path 74" d="M0-174H174V0H0Z"/>
    </clipPath>
  </defs>
  <g id="img3" transform="translate(0 174)" clip-path="url(#clip-path)">
    <path id="Path_68" data-name="Path 68" d="M0,0A36.632,36.632,0,0,1-36.632-36.632,36.632,36.632,0,0,1,0-73.263,36.632,36.632,0,0,1,36.632-36.632,36.632,36.632,0,0,1,0,0M0-91.579A54.95,54.95,0,0,0-54.947-36.632,54.95,54.95,0,0,0,0,18.316,54.95,54.95,0,0,0,54.947-36.632,54.95,54.95,0,0,0,0-91.579" transform="translate(87 -22.895)" fill="#9aaab4"/>
    <path id="Path_69" data-name="Path 69" d="M0,0-18.316-22.895H-82.421L-100.737,0l50.368,41.211Z" transform="translate(137.368 -146.526)" fill="#5dadec"/>
    <path id="Path_70" data-name="Path 70" d="M0,0-18.316-22.895H-82.421L-100.737,0Z" transform="translate(137.368 -146.526)" fill="#8ccaf7"/>
    <path id="Path_71" data-name="Path 71" d="M0,0-18.316-22.895H-50.368V0Z" transform="translate(137.368 -146.526)" fill="#5dadec"/>
    <path id="Path_72" data-name="Path 72" d="M0,0H50.368L0,41.211Z" transform="translate(87 -146.526)" fill="#8ccaf7"/>
    <path id="Path_73" data-name="Path 73" d="M0,0A13.737,13.737,0,0,1-13.737,13.737H-50.368A13.737,13.737,0,0,1-64.105,0,13.737,13.737,0,0,1-50.368-13.737h36.632A13.737,13.737,0,0,1,0,0" transform="translate(119.053 -109.895)" fill="#9aaab4"/>
  </g>
</svg>
