<svg xmlns="http://www.w3.org/2000/svg" width="189.369" height="181.735" viewBox="0 0 189.369 181.735">
  <g id="img6" transform="translate(-16582.133 -3024.265)">
    <g id="de5876e5cd54ac38d7bb261aac8f5e54" transform="translate(16595.533 3025.296)">
      <path id="Path_99" data-name="Path 99" d="M2.78,175.15a2.777,2.777,0,0,1,0-3.931L77.939,96.06A2.782,2.782,0,0,1,81.87,100L6.712,175.15A2.767,2.767,0,0,1,2.78,175.15Z" fill="#ccd1d9"/>
      <path id="Path_100" data-name="Path 100" d="M140.233,59.319a4.176,4.176,0,1,1-5.891,5.919l-2.958-2.955L115.65,46.547l-2.925-2.95a4.169,4.169,0,1,1,5.894-5.9l2.919,2.958h.028l15.708,15.731.028.006Z" fill="#f5f7fa"/>
      <path id="Path_101" data-name="Path 101" d="M101.557,92.118v.028L99.58,90.169v-.028L87.761,78.347l-1.946-1.941v-.019l29.835-29.84,15.733,15.736Z" fill="#ccd1d9"/>
      <path id="Path_102" data-name="Path 102" d="M83.847,74.441c1.084,1.087,2.4,2.4,2.944,2.939s.089,1.857-.99,2.939L75.965,90.18c-1.082,1.087-2.85,2.855-3.931,3.937l-7.851,7.851a2.787,2.787,0,0,1-3.931,0L44.526,86.243a2.787,2.787,0,0,1,0-3.931L66.148,60.668a2.779,2.779,0,0,1,3.928-.006Z" fill="#5d9cec"/>
      <path id="Path_103" data-name="Path 103" d="M149.04,44.631,137.3,56.4l-.028-.006L121.566,40.661,133.3,28.9Z" fill="#ccd1d9"/>
      <path id="Path_104" data-name="Path 104" d="M156.08,37.6a2.787,2.787,0,0,1,0,3.931l-3.1,3.1a2.787,2.787,0,0,1-3.931,0L133.3,28.876a2.787,2.787,0,0,1,0-3.931l3.1-3.089a2.787,2.787,0,0,1,3.931,0Z" fill="#e6e9ed"/>
      <path id="Path_105" data-name="Path 105" d="M175.158,26.368a2.794,2.794,0,0,1,0,3.937L161.966,43.494a2.786,2.786,0,0,1-3.926.006c-1.079-1.082-1.96-1.966-1.96-1.977s-.884-.9-1.966-1.977L138.395,23.821c-1.084-1.082-1.974-1.966-1.982-1.966s-.9-.879-1.974-1.96a2.783,2.783,0,0,1,.008-3.926L147.634,2.78a2.787,2.787,0,0,1,3.931,0Z" fill="#f5f7fa"/>
      <path id="Path_106" data-name="Path 106" d="M117.265,107.859a2.785,2.785,0,0,1,0,3.931L95.621,133.413a2.782,2.782,0,0,1-3.931-.006L75.973,117.693a2.782,2.782,0,0,1,0-3.931L83.83,105.9c1.082-1.082,2.85-2.85,3.934-3.926l9.85-9.839c1.084-1.082,2.413-1.521,2.955-.979l2.955,2.955Z" fill="#5d9cec"/>
      <path id="Path_107" data-name="Path 107" d="M99.58,90.141v.028L85.793,103.934l-5.9-5.9L74,92.151l13.765-13.8Z" fill="#e6e9ed"/>
      <rect id="Rectangle_55" data-name="Rectangle 55" width="2.769" height="2.769" transform="translate(85.805 80.306) rotate(-134.959)" fill="#5d9cec"/>
      <rect id="Rectangle_56" data-name="Rectangle 56" width="2.764" height="2.766" transform="translate(99.581 94.08) rotate(-134.999)" fill="#5d9cec"/>
    </g>
    <g id="Group_74" data-name="Group 74" transform="translate(16582.133 3024.265)">
      <path id="Path_108" data-name="Path 108" d="M0,0H181.735V181.735H0Z" fill="none"/>
      <path id="Path_109" data-name="Path 109" d="M77.723,153.446A75.723,75.723,0,1,0,2,77.723,75.751,75.751,0,0,0,77.723,153.446Zm0-136.3A60.562,60.562,0,0,1,138.3,77.723a59.839,59.839,0,0,1-12.8,37.1L40.619,29.942A59.839,59.839,0,0,1,77.723,17.145ZM29.942,40.619,114.827,125.5a59.839,59.839,0,0,1-37.1,12.8A60.562,60.562,0,0,1,17.145,77.723,59.839,59.839,0,0,1,29.942,40.619Z" transform="translate(13.145 13.145)" fill="#db0000"/>
    </g>
  </g>
</svg>
