<svg xmlns="http://www.w3.org/2000/svg" width="174" height="174" viewBox="0 0 174 174">
  <g id="img8" transform="translate(-2.807 -2.806)">
    <path id="Path_77" data-name="Path 77" d="M113.661,133.306a30.853,30.853,0,0,0,30.871,30.871V175.4H4.21V4.21H144.532v98.226A30.853,30.853,0,0,0,113.661,133.306Z" fill="#fff"/>
    <path id="Path_78" data-name="Path 78" d="M144.532,164.177V175.4H4.21V4.21H22.873A144.018,144.018,0,0,0,37.887,58.065q2.947,5.809,6.343,11.282c1.4,2.217,2.835,4.406,4.35,6.567,1.487,2.133,3.059,4.238,4.659,6.286A147.1,147.1,0,0,0,82.79,110.49a142.759,142.759,0,0,0,31.4,17.063,32.5,32.5,0,0,0-.533,5.753A30.853,30.853,0,0,0,144.532,164.177Z" fill="#efefef"/>
    <path id="Path_79" data-name="Path 79" d="M82.79,88.4v28.065a25.26,25.26,0,0,1-25.258,25.258H43.5a25.26,25.26,0,0,1-25.258-25.258V88.4a25.31,25.31,0,0,1,20.01-24.725L43.5,71.565l2.806-8.419h8.419l2.806,8.419,5.248-7.886A25.31,25.31,0,0,1,82.79,88.4Z" fill="#06afff"/>
    <path id="Path_80" data-name="Path 80" d="M68.758,36.484a7.886,7.886,0,0,1-.028.814,18.232,18.232,0,0,1-36.428,0,7.887,7.887,0,0,1-.028-.814,18.242,18.242,0,1,1,36.484,0Z" fill="#fcda35"/>
    <path id="Path_81" data-name="Path 81" d="M68.758,36.484a7.886,7.886,0,0,1-.028.814,14.62,14.62,0,0,1-4.182.589,15.471,15.471,0,0,1-14.032-9.009,15.408,15.408,0,0,1-14.032,9.009A14.62,14.62,0,0,1,32.3,37.3a7.887,7.887,0,0,1-.028-.814,18.242,18.242,0,1,1,36.484,0Z" fill="#ff56cb"/>
    <path id="Path_82" data-name="Path 82" d="M175.4,133.306a30.871,30.871,0,0,1-61.742,0,32.5,32.5,0,0,1,.533-5.753,30.875,30.875,0,0,1,61.209,5.753Z" fill="#fcda35"/>
    <path id="Path_83" data-name="Path 83" d="M161.371,143.129a142.365,142.365,0,0,1-15.548-.842c-4.182-.421-8.307-1.066-12.376-1.88a140.844,140.844,0,0,1-19.729-5.3A30.88,30.88,0,0,0,174,142.568C169.846,142.933,165.637,143.129,161.371,143.129Z" fill="#faca00"/>
    <path id="Path_84" data-name="Path 84" d="M63.145,57.532v5.613l-.365.533-5.248,7.886-2.806-8.419,8.307-5.529Z" fill="#fcda35"/>
    <path id="Path_85" data-name="Path 85" d="M46.306,63.145,43.5,71.565l-5.248-7.886-.365-.533V57.532l.112.084Z" fill="#fcda35"/>
    <path id="Path_86" data-name="Path 86" d="M82.79,110.49v5.978a25.26,25.26,0,0,1-25.258,25.258H43.5a25.26,25.26,0,0,1-25.258-25.258V88.4a25.31,25.31,0,0,1,20.01-24.725L43.5,71.565l.73-2.217c1.4,2.217,2.835,4.406,4.35,6.567,1.487,2.133,3.059,4.238,4.659,6.286A147.1,147.1,0,0,0,82.79,110.49Z" fill="#0688ff"/>
    <path id="Path_87" data-name="Path 87" d="M44.23,69.347l-.73,2.217-5.248-7.886-.365-.533v-5.08Q40.834,63.875,44.23,69.347Z" fill="#faca00"/>
    <rect id="Rectangle_53" data-name="Rectangle 53" width="64.548" height="8.419" transform="translate(18.242 152.952)" fill="#d949ac"/>
    <path id="Path_88" data-name="Path 88" d="M55.792,119.078l-3.873,5.809H49.113l-3.873-5.809a8.41,8.41,0,0,1-1.347-5.725l5-39.88A8.43,8.43,0,0,0,48.5,69.74l-2.189-6.6h8.419l-2.189,6.6a8.43,8.43,0,0,0-.393,3.733l5,39.88A8.41,8.41,0,0,1,55.792,119.078Z" fill="#ff56cb"/>
    <path id="Path_89" data-name="Path 89" d="M55.792,119.078l-3.873,5.809H49.113l-3.873-5.809a8.41,8.41,0,0,1-1.347-5.725L48.58,75.915c1.487,2.133,3.059,4.238,4.659,6.286l3.9,31.152A8.41,8.41,0,0,1,55.792,119.078Z" fill="#d949ac"/>
    <path id="Path_90" data-name="Path 90" d="M160.408,121.4l-3.968-3.968-11.908,11.908L132.624,117.43l-3.968,3.968,11.908,11.908-11.908,11.908,3.968,3.968,11.908-11.908,11.908,11.908,3.968-3.968L148.5,133.306Z" fill="#ff56cb"/>
    <path id="Path_91" data-name="Path 91" d="M133.447,140.407c2.245.449,4.49.842,6.764,1.179l-7.577,7.605-3.985-3.985Zm26.97,4.8-3.985,3.985-6.511-6.511c2.778.225,5.557.365,8.363.393Z" fill="#d949ac"/>
    <path id="Path_92" data-name="Path 92" d="M51.919,126.29H49.113a1.4,1.4,0,0,1-1.167-.626l-3.873-5.812a9.812,9.812,0,0,1-1.574-6.671l4.987-39.9a7.1,7.1,0,0,0-.306-3.093l-2.2-6.606a1.4,1.4,0,0,1,1.327-1.844h8.419a1.4,1.4,0,0,1,1.33,1.849l-2.2,6.606a7.09,7.09,0,0,0-.306,3.093l4.987,39.9a9.831,9.831,0,0,1-1.574,6.671l-3.873,5.812A1.408,1.408,0,0,1,51.919,126.29Zm-2.054-2.806H51.17l3.458-5.186a7.011,7.011,0,0,0,1.125-4.765h0l-4.987-39.9a9.93,9.93,0,0,1,.427-4.328l1.586-4.76H48.254l1.586,4.76a9.889,9.889,0,0,1,.429,4.328l-4.987,39.9a7.011,7.011,0,0,0,1.125,4.765Zm.651-67.355A19.645,19.645,0,1,1,70.161,36.484,19.667,19.667,0,0,1,50.516,56.129Zm0-36.484A16.839,16.839,0,1,0,67.355,36.484,16.856,16.856,0,0,0,50.516,19.645Z" fill="#2828b8"/>
    <path id="Path_93" data-name="Path 93" d="M57.532,143.129H43.5a26.689,26.689,0,0,1-26.661-26.661V88.4A26.771,26.771,0,0,1,37.96,62.32a1.4,1.4,0,1,1,.581,2.748A23.944,23.944,0,0,0,19.645,88.4v28.065A23.882,23.882,0,0,0,43.5,140.323H57.532a23.882,23.882,0,0,0,23.855-23.855V88.4a23.955,23.955,0,0,0-18.9-23.338,1.4,1.4,0,0,1,.581-2.748A26.776,26.776,0,0,1,84.194,88.4v28.065A26.689,26.689,0,0,1,57.532,143.129Z" fill="#2828b8"/>
    <path id="Path_94" data-name="Path 94" d="M68.758,140.323a1.4,1.4,0,0,1-1.4-1.4V85.6a1.4,1.4,0,0,1,2.806,0v53.323A1.4,1.4,0,0,1,68.758,140.323Zm-36.484,0a1.4,1.4,0,0,1-1.4-1.4V124.887a1.4,1.4,0,0,1,2.806,0v14.032A1.4,1.4,0,0,1,32.274,140.323ZM64.548,39.29a16.851,16.851,0,0,1-16.21-21.41,1.4,1.4,0,1,1,2.7.761A14.039,14.039,0,0,0,68.357,35.959a1.4,1.4,0,1,1,.761,2.7A16.763,16.763,0,0,1,64.548,39.29Z" fill="#2828b8"/>
    <path id="Path_95" data-name="Path 95" d="M36.484,39.29a16.8,16.8,0,0,1-4.572-.629,1.4,1.4,0,0,1,.761-2.7,13.912,13.912,0,0,0,3.811.525A14.08,14.08,0,0,0,49.242,28.3a1.4,1.4,0,0,1,2.548,1.173A16.893,16.893,0,0,1,36.484,39.29Zm-4.21,72.968a1.4,1.4,0,0,1-1.4-1.4V96.823a1.4,1.4,0,1,1,2.806,0v14.032A1.4,1.4,0,0,1,32.274,112.258Zm0-22.452a1.4,1.4,0,0,1-1.4-1.4V85.6a1.4,1.4,0,0,1,2.806,0V88.4A1.4,1.4,0,0,1,32.274,89.806Z" fill="#2828b8"/>
    <path id="Path_96" data-name="Path 96" d="M144.532,176.806H4.21a1.4,1.4,0,0,1-1.4-1.4V4.21a1.4,1.4,0,0,1,1.4-1.4H144.532a1.4,1.4,0,0,1,1.4,1.4v98.226a1.4,1.4,0,0,1-2.806,0V5.613H5.613V174H143.129v-9.823a1.4,1.4,0,0,1,2.806,0V175.4A1.4,1.4,0,0,1,144.532,176.806Z" fill="#2828b8"/>
    <path id="Path_97" data-name="Path 97" d="M144.532,165.581a32.274,32.274,0,1,1,32.274-32.274A32.311,32.311,0,0,1,144.532,165.581Zm0-61.742A29.468,29.468,0,1,0,174,133.306,29.5,29.5,0,0,0,144.532,103.839Zm-87-30.871a1.367,1.367,0,0,1-.185-.011,1.4,1.4,0,0,1-1.145-.946L53.4,63.591a1.4,1.4,0,0,1,.553-1.611l8.419-5.613a1.4,1.4,0,0,1,2.181,1.165v5.613a1.392,1.392,0,0,1-.236.777L58.7,72.342A1.4,1.4,0,0,1,57.532,72.968ZM56.4,63.718l1.56,4.681,3.786-5.677V60.153Zm-12.9,9.25a1.4,1.4,0,0,1-1.167-.626L36.72,63.923a1.392,1.392,0,0,1-.236-.777V57.532a1.4,1.4,0,0,1,2.181-1.167l8.419,5.613a1.4,1.4,0,0,1,.553,1.611L44.83,72.008a1.4,1.4,0,0,1-1.145.946A1.029,1.029,0,0,1,43.5,72.968ZM39.29,62.721,43.076,68.4l1.56-4.681L39.29,60.153Zm43.5,100.053H18.242a1.4,1.4,0,0,1-1.4-1.4v-8.419a1.4,1.4,0,0,1,1.4-1.4H82.79a1.4,1.4,0,0,1,1.4,1.4v8.419A1.4,1.4,0,0,1,82.79,162.774Zm-63.145-2.806H81.387v-5.613H19.645ZM130.5,19.645H96.823a1.4,1.4,0,1,1,0-2.806H130.5a1.4,1.4,0,1,1,0,2.806Zm0,14.032H96.823a1.4,1.4,0,1,1,0-2.806H130.5a1.4,1.4,0,1,1,0,2.806Zm0,14.032H96.823a1.4,1.4,0,1,1,0-2.806H130.5a1.4,1.4,0,1,1,0,2.806Zm0,25.258H96.823a1.4,1.4,0,0,1,0-2.806H130.5a1.4,1.4,0,1,1,0,2.806ZM105.242,87H96.823a1.4,1.4,0,1,1,0-2.806h8.419a1.4,1.4,0,0,1,0,2.806ZM130.5,87h-8.419a1.4,1.4,0,1,1,0-2.806H130.5a1.4,1.4,0,1,1,0,2.806ZM63.145,87H57.532a1.4,1.4,0,1,1,0-2.806h5.613a1.4,1.4,0,1,1,0,2.806Z" fill="#2828b8"/>
    <path id="Path_98" data-name="Path 98" d="M156.44,150.586a1.409,1.409,0,0,1-.993-.41l-10.914-10.917-10.914,10.914a1.4,1.4,0,0,1-1.984,0l-3.968-3.968a1.4,1.4,0,0,1,0-1.984l10.914-10.914-10.914-10.914a1.4,1.4,0,0,1,0-1.984l3.968-3.968a1.4,1.4,0,0,1,1.984,0l10.914,10.914,10.914-10.914a1.4,1.4,0,0,1,1.984,0l3.968,3.968a1.4,1.4,0,0,1,0,1.984l-10.914,10.914L161.4,144.221a1.4,1.4,0,0,1,0,1.984l-3.968,3.968A1.389,1.389,0,0,1,156.44,150.586Zm-11.908-14.714a1.409,1.409,0,0,1,.993.41L156.44,147.2l1.984-1.984L147.51,134.3a1.4,1.4,0,0,1,0-1.984L158.424,121.4l-1.984-1.984-10.914,10.914a1.4,1.4,0,0,1-1.984,0l-10.914-10.914-1.984,1.984,10.914,10.914a1.4,1.4,0,0,1,0,1.984l-10.914,10.914,1.984,1.984,10.914-10.914A1.4,1.4,0,0,1,144.532,135.872Z" fill="#2828b8"/>
  </g>
</svg>
