<svg xmlns="http://www.w3.org/2000/svg" xmlns:xlink="http://www.w3.org/1999/xlink" width="96.763" height="87.916" viewBox="0 0 96.763 87.916">
  <defs>
    <radialGradient id="radial-gradient" cx="0.5" cy="0.588" r="0.5" gradientUnits="objectBoundingBox">
      <stop offset="0" stop-color="#ee8a41"/>
      <stop offset="0.522" stop-color="#f8d187"/>
      <stop offset="1" stop-color="#f6c293"/>
    </radialGradient>
    <filter id="Union_1" x="0" y="15.214" width="96.763" height="72.702" filterUnits="userSpaceOnUse">
      <feOffset dy="3" input="SourceAlpha"/>
      <feGaussianBlur stdDeviation="3" result="blur"/>
      <feFlood flood-opacity="0.161"/>
      <feComposite operator="in" in2="blur"/>
      <feComposite in="SourceGraphic"/>
    </filter>
    <filter id="Path_3" x="30.425" y="9.255" width="36.004" height="39.133" filterUnits="userSpaceOnUse">
      <feOffset dy="3" input="SourceAlpha"/>
      <feGaussianBlur stdDeviation="3" result="blur-2"/>
      <feFlood flood-opacity="0.161"/>
      <feComposite operator="in" in2="blur-2"/>
      <feComposite in="SourceGraphic"/>
    </filter>
  </defs>
  <g id="logo_light" transform="translate(-16263.237 -123)">
    <circle id="Ellipse_5" data-name="Ellipse 5" cx="41.5" cy="41.5" r="41.5" transform="translate(16270 123)" fill="url(#radial-gradient)"/>
    <g id="Group_76" data-name="Group 76" transform="translate(16272.237 138.255)">
      <g transform="matrix(1, 0, 0, 1, -9, -15.26)" filter="url(#Union_1)">
        <path id="Union_1-2" data-name="Union 1" d="M39.381,26.978s3.119,1.1,5.281-1.1c1.263-1.285,1.07-5.519,2.6-6.862,1.764-1.551,2.893-1.515,4.173-2.359a25.5,25.5,0,0,0,5.116-4.778C62.131,5.138,61.705,0,61.705,0a30.844,30.844,0,0,1,1.787,9.053,20.17,20.17,0,0,1-1.787,7.9,34.7,34.7,0,0,1,8.075-2.635,41.831,41.831,0,0,1,8.982-.422S66.022,20.7,56.177,30.907,39.381,54.7,39.381,54.7Zm-16.8,3.93C12.74,20.7,0,13.891,0,13.891a41.831,41.831,0,0,1,8.982.422,34.7,34.7,0,0,1,8.075,2.635,20.168,20.168,0,0,1-1.787-7.9A30.841,30.841,0,0,1,17.058,0s-.426,5.138,5.155,11.883a25.493,25.493,0,0,0,5.116,4.778c1.28.843,2.409.807,4.173,2.359,1.528,1.343,1.335,5.577,2.6,6.862,2.162,2.2,5.281,1.1,5.281,1.1V54.7S32.431,41.11,22.585,30.907Z" transform="translate(9 21.21)" fill="#fff"/>
      </g>
      <g transform="matrix(1, 0, 0, 1, -9, -15.26)" filter="url(#Path_3)">
        <path id="Path_3-2" data-name="Path 3" d="M1369.874,1689.094c-1.306,0-.156,3-2.5,6.051-1.683,2.192-5.568,4.149-6.254,6.41a8.522,8.522,0,0,0,2.342,8.672s3.575-4.812,6.41-4.812,4.932,4.812,4.932,4.812,4.972-3.389,3.739-8.672c-.544-2.33-4.126-4.078-5.948-6.41C1370.367,1692.288,1371.18,1689.094,1369.874,1689.094Z" transform="translate(-1321.31 -1673.84)" fill="#fff"/>
      </g>
    </g>
  </g>
</svg>
